<svg xmlns="http://www.w3.org/2000/svg" fill="currentColor" viewBox="0 0 20 21"><path d="M17.44 11.287l.43-.46c.37-.39.57-.91.55-1.45-.02-.55-.25-1.05-.64-1.42-.38-.35-.87-.55-1.39-.55-.56 0-1.1.24-1.49.65l-3.01 3.22H2.63c-.76 0-1.38.61-1.38 1.37v4.75c0 .76.62 1.38 1.38 1.38h14.75c.76 0 1.37-.62 1.37-1.38v-4.75c0-.74-.58-1.34-1.31-1.36zm-6.12 2.43l1.11-1.19 3.39-3.62a.775.775 0 011.1-.04c.32.3.34.79.04 1.11l-1.22 1.3-1.17 1.25-2.11 2.26-1.53.49.39-1.56zm6.18 3.68c0 .07-.05.13-.12.13H2.63c-.07 0-.13-.06-.13-.13v-4.75c0-.07.06-.12.13-.12h8.09l-.31.33c-.15.16-.25.35-.3.55l-.39 1.57a1.24 1.24 0 001.21 1.55c.13 0 .26-.02.38-.06l1.54-.49c.2-.07.38-.18.53-.34l2.9-3.11h1.1c.07 0 .12.05.12.12v4.75z"/><path d="M6.12 6.287l2.49.92.92 2.49c.07.2.26.33.48.33.22 0 .4-.13.48-.33l.92-2.49 2.49-.92a.5.5 0 00.33-.48c0-.22-.13-.4-.33-.48l-2.49-.92-.92-2.49a.5.5 0 00-.48-.33c-.22 0-.4.13-.48.33l-.92 2.49-2.49.92a.5.5 0 00-.33.48c0 .22.13.4.33.48zm6.94-3.44l.26.69c.02.06.07.09.13.09s.11-.04.13-.09l.26-.69.69-.26c.06-.02.09-.07.09-.13s-.04-.11-.09-.13l-.69-.26-.26-.69c-.02-.06-.07-.09-.13-.09s-.11.04-.13.09l-.26.69-.69.26c-.06.02-.09.07-.09.13s.04.11.09.13l.69.26z"/></svg>