<svg xmlns="http://www.w3.org/2000/svg" viewBox="0 0 20 20"><path fill="url(#a)" d="M9.235 1.835c.22-.76 1.3-.76 1.52 0v.03c1.01 3.57 3.8 6.36 7.38 7.37h.03c.76.22.76 1.3 0 1.52h-.03c-3.57 1.01-6.36 3.8-7.38 7.38v.03c-.22.76-1.3.76-1.52 0v-.03c-1.01-3.57-3.8-6.36-7.37-7.38h-.03c-.76-.22-.76-1.3 0-1.52h.03a10.68 10.68 0 007.37-7.37v-.03z"/><defs><linearGradient id="a" x1="4.299" x2="13.691" y1="6.349" y2="15.741" gradientUnits="userSpaceOnUse"><stop stop-color="#FF6700"/><stop offset=".264" stop-color="#ED2780"/><stop offset=".672" stop-color="#0024D6"/><stop offset="1" stop-color="#34C0CE"/></linearGradient></defs></svg>