<svg xmlns="http://www.w3.org/2000/svg" fill="currentColor" viewBox="0 0 20 21"><path d="M4.37 4.662v.75c0 .138.112.25.25.25h7.75a.25.25 0 00.25-.25v-.75a.25.25 0 00-.25-.25H4.62a.25.25 0 00-.25.25zm13.65 9.39l-2.51-.93-.93-2.51a.5.5 0 00-.48-.33.5.5 0 00-.48.33l-.93 2.51-2.51.93a.5.5 0 00-.33.48c0 .22.13.4.33.48l2.51.93.93 2.51c.07.2.26.33.48.33a.5.5 0 00.48-.33l.93-2.51 2.51-.93a.5.5 0 00.33-.48.5.5 0 00-.33-.48zm.63-3.79l-.74-.27-.27-.74a.15.15 0 00-.14-.1.15.15 0 00-.14.1l-.27.74-.74.27a.15.15 0 00-.1.14c0 .06.04.12.1.14l.74.27.27.74c.02.06.08.1.14.1.06 0 .12-.04.14-.1l.27-.74.74-.27c.06-.02.1-.08.1-.14a.15.15 0 00-.1-.14z"/><path d="M8.75 17.532H2.9c-.22 0-.4-.18-.4-.4v-14.2c0-.22.18-.4.4-.4h11.21c.22 0 .4.18.4.4v5.97c0 .14.12.26.26.26h.73c.14 0 .26-.12.26-.26v-5.97c0-.91-.74-1.65-1.65-1.65H2.9c-.91 0-1.65.74-1.65 1.65v14.21c0 .91.74 1.65 1.65 1.65h5.85c.14 0 .26-.12.26-.26v-.73c0-.14-.12-.26-.26-.26v-.01z"/><path d="M12.38 7.412H4.63a.25.25 0 00-.25.25v.75c0 .138.112.25.25.25h7.75a.25.25 0 00.25-.25v-.75a.25.25 0 00-.25-.25zm-3.64 3H4.63a.25.25 0 00-.25.25v.75c0 .138.112.25.25.25h4.11a.25.25 0 00.25-.25v-.75a.25.25 0 00-.25-.25z"/></svg>