<svg xmlns="http://www.w3.org/2000/svg" viewBox="0 0 1400 1000" width="1400" height="1000" role="img">
  <defs>
    <linearGradient id="bg-maps-event" x1="0" y1="0" x2="0.35" y2="1">
      <stop offset="0" stop-color="#123028"/>
      <stop offset="1" stop-color="#07100d"/>
    </linearGradient>
    <radialGradient id="glow-maps-event" cx="0.5" cy="0.34" r="0.62">
      <stop offset="0" stop-color="#37a878" stop-opacity="0.55"/>
      <stop offset="0.55" stop-color="#37a878" stop-opacity="0.12"/>
      <stop offset="1" stop-color="#37a878" stop-opacity="0"/>
    </radialGradient>
    <radialGradient id="vig-maps-event" cx="0.5" cy="0.42" r="0.78">
      <stop offset="0.45" stop-color="#000" stop-opacity="0"/>
      <stop offset="1" stop-color="#000" stop-opacity="0.5"/>
    </radialGradient>
    <filter id="grain-maps-event" x="0" y="0" width="100%" height="100%">
      <feTurbulence type="fractalNoise" baseFrequency="0.85" numOctaves="3" seed="7"/>
      <feColorMatrix type="saturate" values="0"/>
    </filter>
    <filter id="soft-maps-event" x="-30%" y="-30%" width="160%" height="160%">
      <feGaussianBlur stdDeviation="26"/>
    </filter>
  </defs>

  <rect width="1400" height="1000" fill="url(#bg-maps-event)"/>
  <rect width="1400" height="1000" fill="url(#glow-maps-event)"/>
  <g transform="translate(700 455) scale(0.620) translate(-700 -410)">
  <line x1="250" y1="150" x2="190" y2="640" stroke="#fff" stroke-width="1.5" opacity="0.07"/>
  <line x1="240" y1="210" x2="1160" y2="210" stroke="#fff" stroke-width="1.5" opacity="0.07"/>
  <line x1="430" y1="150" x2="370" y2="640" stroke="#fff" stroke-width="1.5" opacity="0.07"/>
  <line x1="240" y1="294" x2="1160" y2="294" stroke="#fff" stroke-width="1.5" opacity="0.07"/>
  <line x1="610" y1="150" x2="550" y2="640" stroke="#fff" stroke-width="1.5" opacity="0.07"/>
  <line x1="240" y1="378" x2="1160" y2="378" stroke="#fff" stroke-width="1.5" opacity="0.07"/>
  <line x1="790" y1="150" x2="730" y2="640" stroke="#fff" stroke-width="1.5" opacity="0.07"/>
  <line x1="240" y1="462" x2="1160" y2="462" stroke="#fff" stroke-width="1.5" opacity="0.07"/>
  <line x1="970" y1="150" x2="910" y2="640" stroke="#fff" stroke-width="1.5" opacity="0.07"/>
  <line x1="240" y1="546" x2="1160" y2="546" stroke="#fff" stroke-width="1.5" opacity="0.07"/>
  <line x1="1150" y1="150" x2="1090" y2="640" stroke="#fff" stroke-width="1.5" opacity="0.07"/>
  <line x1="240" y1="630" x2="1160" y2="630" stroke="#fff" stroke-width="1.5" opacity="0.07"/>
  <path d="M340 580 C 470 520, 460 380, 610 356 C 760 332, 800 470, 940 420 C 1020 392, 1040 318, 1060 268" fill="none" stroke="#a6e85b" stroke-width="5" opacity="0.5" stroke-linecap="round" stroke-dasharray="1 0"/>
  <path d="M340 580 C 470 520, 460 380, 610 356" fill="none" stroke="#a6e85b" stroke-width="5" opacity="0.95" stroke-linecap="round"/>
  <path d="M610 356 c -30 -34, -46 -54, -46 -80 a 46 46 0 1 1 92 0 c 0 26, -16 46, -46 80 z" fill="#a6e85b" opacity="0.95"/><circle cx="610" cy="272" r="16" fill="#000" opacity="0.35"/>
  <path d="M1060 268 c -30 -34, -46 -54, -46 -80 a 46 46 0 1 1 92 0 c 0 26, -16 46, -46 80 z" fill="#fff" opacity="0.3"/><circle cx="1060" cy="184" r="16" fill="#000" opacity="0.25"/>
  <circle cx="340" cy="580" r="14" fill="#fff" opacity="0.8"/>
  <circle cx="340" cy="580" r="30" fill="none" stroke="#fff" stroke-width="2" opacity="0.28"/>
  </g>
  <rect width="1400" height="1000" fill="url(#vig-maps-event)"/>
  <rect width="1400" height="1000" filter="url(#grain-maps-event)" opacity="0.06"/>
</svg>
