<svg xmlns="http://www.w3.org/2000/svg" viewBox="0 0 1400 1000" width="1400" height="1000" role="img">
  <defs>
    <linearGradient id="bg-skill-mate" x1="0" y1="0" x2="0.35" y2="1">
      <stop offset="0" stop-color="#25203f"/>
      <stop offset="1" stop-color="#0d0b17"/>
    </linearGradient>
    <radialGradient id="glow-skill-mate" cx="0.5" cy="0.34" r="0.62">
      <stop offset="0" stop-color="#8a6fd8" stop-opacity="0.55"/>
      <stop offset="0.55" stop-color="#8a6fd8" stop-opacity="0.12"/>
      <stop offset="1" stop-color="#8a6fd8" stop-opacity="0"/>
    </radialGradient>
    <radialGradient id="vig-skill-mate" cx="0.5" cy="0.42" r="0.78">
      <stop offset="0.45" stop-color="#000" stop-opacity="0"/>
      <stop offset="1" stop-color="#000" stop-opacity="0.5"/>
    </radialGradient>
    <filter id="grain-skill-mate" x="0" y="0" width="100%" height="100%">
      <feTurbulence type="fractalNoise" baseFrequency="0.85" numOctaves="3" seed="7"/>
      <feColorMatrix type="saturate" values="0"/>
    </filter>
    <filter id="soft-skill-mate" x="-30%" y="-30%" width="160%" height="160%">
      <feGaussianBlur stdDeviation="26"/>
    </filter>
  </defs>

  <rect width="1400" height="1000" fill="url(#bg-skill-mate)"/>
  <rect width="1400" height="1000" fill="url(#glow-skill-mate)"/>
  <g transform="translate(700 455) scale(0.620) translate(-700 -410)">
  <rect x="300" y="210" width="430" height="104" rx="30" fill="#fff" opacity="0.16"/>
  <rect x="332" y="248" width="300" height="12" rx="6" fill="#fff" opacity="0.4"/>
  <rect x="332" y="274" width="200" height="12" rx="6" fill="#fff" opacity="0.26"/>
  <rect x="560" y="352" width="500" height="150" rx="34" fill="#a6e85b" opacity="0.14"/>
  <rect x="560" y="352" width="500" height="150" rx="34" fill="none" stroke="#a6e85b" stroke-width="2" opacity="0.5"/>
  <rect x="596" y="392" width="380" height="12" rx="6" fill="#a6e85b" opacity="0.75"/>
  <rect x="596" y="420" width="330" height="12" rx="6" fill="#a6e85b" opacity="0.5"/>
  <rect x="596" y="448" width="220" height="12" rx="6" fill="#a6e85b" opacity="0.3"/>
  <rect x="300" y="540" width="340" height="86" rx="26" fill="#fff" opacity="0.1"/>
  <rect x="330" y="574" width="210" height="12" rx="6" fill="#fff" opacity="0.3"/>
  <path d="M1010 470 l 0 62 l 16 -17 l 12 27 l 13 -6 l -12 -26 l 23 -3 z" fill="#fff" opacity="0.92"/>
  </g>
  <rect width="1400" height="1000" fill="url(#vig-skill-mate)"/>
  <rect width="1400" height="1000" filter="url(#grain-skill-mate)" opacity="0.06"/>
</svg>
